<svg xmlns="http://www.w3.org/2000/svg" width="24" height="24" viewBox="0 0 24 24" fill="#64748b" role="img" aria-label="GitHub">
  <path d="M12 0.5C5.65 0.5 0.5 5.65 0.5 12c0 5.09 3.3 9.4 7.88 10.93.58.11.79-.25.79-.56 0-.28-.01-1.02-.01-2-3.2.7-3.88-1.54-3.88-1.54-.52-1.33-1.28-1.68-1.28-1.68-1.05-.72.08-.71.08-.71 1.16.08 1.77 1.19 1.77 1.19 1.03 1.77 2.7 1.26 3.36.96.1-.75.4-1.26.73-1.55-2.56-.29-5.25-1.28-5.25-5.7 0-1.26.45-2.29 1.19-3.1-.12-.29-.52-1.46.11-3.04 0 0 .97-.31 3.18 1.19a11.05 11.05 0 0 1 2.9-.39c.98 0 1.97.13 2.9.39 2.2-1.5 3.17-1.19 3.17-1.19.63 1.58.23 2.75.11 3.04.74.81 1.19 1.84 1.19 3.1 0 4.43-2.7 5.41-5.28 5.69.42.36.79 1.07.79 2.16 0 1.56-.01 2.82-.01 3.2 0 .31.21.67.8.56A10.99 10.99 0 0 0 23.5 12C23.5 5.65 18.35 0.5 12 0.5z"/>
</svg>
